<?xml version="1.0" encoding="iso-8859-1"?>
<!-- Generator: Adobe Illustrator 19.0.0, SVG Export Plug-In . SVG Version: 6.00 Build 0)  -->
<svg version="1.1" id="Layer_1" xmlns="http://www.w3.org/2000/svg" xmlns:xlink="http://www.w3.org/1999/xlink" x="0px" y="0px"
	 viewBox="0 0 512 512" style="enable-background:new 0 0 512 512;" xml:space="preserve">
<path style="fill:#C7D5DD;" d="M256.036,0.128h-10.834h-0.288l0,0h-0.496l0,0h-0.304l0,0h-0.304l0,0h-0.304l0,0h-0.304l0,0h-0.296
	l0,0c-3.817,0.192-7.601,0.472-11.378,0.8l0,0h-0.296l0,0h-0.304l0,0h-0.2h-0.104h-0.192h-0.12h-0.168H230h-0.152h-0.216h-0.168
	h-1.512h-0.12h-0.184h-0.128h-0.176h-0.128l0,0h-0.112l0,0h-0.136l0,0h-0.12l0,0h-0.144l0,0h-0.136l0,0h-0.144l0,0h-0.288l0,0
	h-0.296l0,0c-3.2,0.376-6.361,0.808-9.489,1.304l4.937,31.62c11.522-1.464,23.139-2.04,34.749-1.72V0.128z M177.305,12.482
	c-1.88,0.608-3.753,1.232-5.601,1.88l0,0l-0.264,0.096l0,0l-0.256,0.088l0,0l-0.128,0.048h-0.048h-0.072h-0.048l-0.12,0.04h-0.048
	h-0.072h-0.096h-0.064h-0.064h-0.096h-0.072h-0.064h-0.104h-0.056h-0.08h-0.048l-0.112,0.04h-0.048h-0.096H169.6h-0.104l0,0
	l-0.12,0.04l0,0h-0.104l0,0l-0.12,0.048l0,0l-0.128,0.048l0,0l-0.128,0.048l0,0l-0.128,0.048l0,0l-0.128,0.048l0,0l-0.136,0.048l0,0
	l-0.552,0.68l0,0l-0.144,0.056l0,0c-6.401,2.344-12.658,4.921-18.763,7.745l0,0l-0.28,0.128l0,0l-0.16,0.072l0,0l-0.272,0.128l0,0
	l-0.128,0.064l0,0l-0.12,0.056l0,0l-0.128,0.056l0,0l-0.128,0.056l0,0l-0.12,0.056l0,0l-0.12,0.056l0,0l-0.096,0.048h-0.04
	l-0.232,0.12h-0.048h-0.072l-0.088,0.04h-0.056h-0.064h-0.064l-0.096,0.048h-0.048l-0.232,0.112l0,0l-0.144,0.064l0,0
	c-1.976,0.936-3.945,1.904-5.905,2.896l14.418,28.74c10.401-5.281,21.203-9.745,32.309-13.338L177.305,12.482z M106.231,48.487
	c-1.504,1.08-2.976,2.176-4.457,3.288l0,0l-0.136,0.104l0,0l-0.064,0.048l0,0l-0.128,0.096l0,0l-0.096,0.072h-0.04l-0.056,0.048
	l-0.056,0.04l-0.072,0.056l-0.064,0.048h-0.048l-0.2,0.2h-0.04l-0.08,0.064l0,0l-0.104,0.08l0,0l-0.104,0.08l0,0l-0.104,0.08l0,0
	l-0.112,0.08l0,0l-0.232,0.176l0,0l-0.12,0.096l0,0C93.517,58.08,87.364,63.297,81.459,68.81l0,0l-0.224,0.208l0,0l-0.104,0.104l0,0
	l-0.216,0.2l0,0l-0.104,0.096l0,0l-0.088,0.088l0,0l-0.096,0.088l0,0l-0.088,0.088l0,0l-0.064,0.064l0,0l-0.08,0.08l0,0
	l-0.384,0.352v0.048l-0.064,0.056h-0.04l-0.08,0.072l-0.048,0.048l-0.04,0.04l-0.08,0.072h-0.04l-0.088,0.136l0,0l-0.096,0.088l0,0
	l-0.184,0.152l0,0l-0.208,0.2l0,0c-1.112,1.064-2.2,2.128-3.296,3.2l22.531,22.731c8.297-8.225,17.226-15.794,26.692-22.635
	L106.231,48.487z M49.607,104.575c-5.465,7.433-10.521,15.146-15.154,23.123l0,0l-0.096,0.16l0,0l-0.136,0.24l0,0l-0.08,0.144l0,0
	l-0.048,0.088l0,0l-0.088,0.152l0,0l-0.136,0.232l0,0l-0.08,0.144l0,0l-0.184,0.36l0,0l-0.088,0.16l0,0l-0.048,0.08l0,0
	l-0.088,0.152l0,0l-0.128,0.232l0,0l-0.072,0.128l0,0l-0.04,0.072l0,0l-0.072,0.128v0.04l-0.064,0.112l0,0v0.072v0.048l-0.056,0.096
	v0.056v0.064l-0.048,0.088v0.056v0.056l-0.048,0.088v0.064v0.056l-0.048,0.08v0.064v0.056v0.056l-0.048,0.096v0.056v0.064
	l-0.048,0.08v0.056v0.056l-0.704,0.28v0.048v0.072v0.056l-0.056,0.096v0.048l-0.048,0.088v0.064v0.072v0.048l-0.056,0.104v0.04
	l-0.048,0.088v0.04l-0.048,0.096v0.048l-0.056,0.104l0,0l-0.048,0.088l0,0l-0.064,0.112l0,0l-0.064,0.12l0,0l-0.064,0.112l0,0
	l-0.064,0.12l0,0l-0.064,0.12l0,0l-0.44,0.304l0,0l-0.064,0.128l0,0l-0.072,0.128l0,0l-0.072,0.128l0,0l-0.144,0.264l0,0
	l-0.128,0.152l0,0l-0.144,0.264l0,0l-0.216,0.408l0,0l-0.368,0.688l0,0c-0.392,0.736-0.776,1.48-1.168,2.224l28.42,14.722
	c5.377-10.361,11.546-20.291,18.467-29.692L49.607,104.575z M12.962,175.337c-0.976,2.936-1.896,5.897-2.768,8.881l0,0l-0.128,0.44
	l0,0l-0.08,0.28l0,0v0.136l0,0v0.128l0,0v0.128l0,0v0.12l0,0v0.128l0,0v0.128l0,0v0.12v0.04v0.12v0.04v0.088v0.048v0.112v0.048v0.08
	v0.064v0.096v0.048v0.088v0.08v0.064v0.064v0.072v0.096v0.056v0.088v0.08v0.072v0.056v0.12v0.04v0.08l0,0l-0.04,0.144l0,0
	l-0.072,0.272l0,0l-0.072,0.28l0,0l-0.048,0.184l0,0l-0.08,0.28l0,0c-2.52,8.313-4.609,16.754-6.265,25.284l31.58,5.201
	c1.896-11.506,4.697-22.843,8.369-33.909l-30.404-10.089L12.962,175.337z M0,253.956v0.08c0,0.52,0,1.024,0,1.544l0,0v0.416l0,0
	v14.01v0.256l0,0v0.264v1.072v0.264l0,0v0.272v0.12l0,0v0.8l0,0v0.12v0.272l0,0v0.272l0,0v0.28v0.128v0.176v0.128v0.192l0,0v0.296
	v0.28l0,0v0.28l0,0v0.28v0.112l0,0v0.184v0.12v0.288l0,0v0.28l0,0v0.28l0,0v0.288l0,0v0.296l0,0v0.096l0,0v0.288l0,0v0.28l0,0v0.288
	l0,0v0.28v0.112l0,0v0.2l0,0v0.4l0,0v0.288l0,0v0.288l0,0v0.288l0,0v0.288l0,0v0.096l0,0v0.192l0,0v0.12v0.264l0,0v0.272l0,0v0.272
	v0.112l0,0v0.176v0.128v0.184l0,0v0.112v0.28l0,0v0.288l0,0v0.288l0,0v0.288l0,0l0.04,0.392l0,0v0.28l0,0v0.272l0,0v0.264v0.136
	v0.16v0.144v0.16v0.144v0.16l0,0v0.12v0.264l0,0v0.264v0.144v0.16v0.136v0.168v0.144v0.168l0,0v0.12v0.264v0.68v0.144v0.144v0.152
	v0.144v0.168v0.144v0.152v0.144v0.152v0.256v0.104v0.248v0.112v0.184v0.112v0.544v0.104v0.192v0.112v0.256v0.096v0.2v0.088v0.2
	v0.096v0.256v0.104v0.184v0.112v0.176v0.104v0.168l34.365-4.737c-1.608-10.97-2.408-22.043-2.4-33.133v-1.792L0,253.956z
	 M42.254,323.181l-30.532,9.601c1.44,4.577,3,9.113,4.689,13.602l0,0l0.104,0.264l0,0l0.064,0.168l0,0v0.088l0,0l0.064,0.168l0,0
	l0.064,0.16l0,0v0.08l0,0l0.048,0.128v0.04v0.072v0.048l0.04,0.112v0.048l0.04,0.104v0.056v0.072v0.048l0.04,0.112v0.056v0.064
	v0.088v0.08v0.064v0.056v0.104v0.064v0.072v0.08v0.08v0.056l0.04,0.112v0.048v0.072v0.048l0.04,0.112v0.048v0.096v0.04l0.04,0.104
	l0,0l0.048,0.12l0,0l0.04,0.104l0,0l0.048,0.12l0,0l0.048,0.128l0,0l0.048,0.12l0,0l0.048,0.128l0,0l0.048,0.12l0,0l0.056,0.128l0,0
	l0.112,0.272l0,0l0.056,0.136l0,0l0.056,0.136l0,0l0.056,0.136l0,0l0.112,0.28l0,0c2.464,6.081,5.153,12.042,8.057,17.883
	l28.652-14.266c-5.193-10.441-9.561-21.275-13.066-32.397L42.254,323.181z M73.306,385.59l-26.1,18.531
	c0.888,1.256,1.792,2.496,2.704,3.737l0,0l0.272,0.368l0,0l0.152,0.208v0.048l0.056,0.08l0.048,0.056v0.056l0.064,0.088v0.04
	l0.048,0.072l0,0l0.072,0.096l0,0l0.08,0.104l0,0l0.08,0.104l0,0l0.08,0.112l0,0l0.088,0.112l0,0l0.088,0.12l0,0l0.28,0.368l0,0
	c5.561,7.353,11.506,14.402,17.819,21.115l0,0l0.208,0.216l0,0l0.104,0.104l0,0l0.488,0.416l0,0l0.096,0.104l0,0l0.2,0.208l0,0
	l0.096,0.096l0,0l0.088,0.096l0,0l0.096,0.096l0,0l0.2,0.208l0,0l0.104,0.104l0,0l0.088,0.088l0,0l0.096,0.096l0,0l0.088,0.088l0,0
	l0.08,0.08l0,0l0.088,0.088l0,0l0.08,0.08l0,0l0.072,0.08l0,0l0.088,0.088l0,0l0.08,0.08l0,0l0.432,0.448l0,0l0.08,0.088l0,0
	l0.064,0.064l0,0l0.08,0.088l0,0l0.064,0.064l0.056,0.056l0.056,0.064l0,0l0.08,0.08v0.04l0.056,0.056l0.048,0.048l0.064,0.064l0,0
	l22.883-22.403c-8.161-8.353-15.666-17.33-22.443-26.844L73.306,385.59z M122.113,435.493l-19.171,25.612l0,0l0.104,0.08l0,0
	l0.112,0.088l0,0l0.232,0.176l0,0l0.128,0.096l0,0l0.24,0.176l0,0l0.12,0.088l0,0l0.24,0.176l0,0l0.24,0.176l0,0l0.376,0.272l0,0
	c10.129,7.425,20.795,14.098,31.908,19.955l15.01-28.244c-10.337-5.449-20.235-11.69-29.604-18.675L122.113,435.493z
	 M183.77,467.994l-10.313,30.3c12.634,4.297,25.58,7.601,38.733,9.865l5.441-31.54C206.133,474.635,194.811,471.746,183.77,467.994z
	 M287.44,477.723c-10.409,1.44-20.899,2.152-31.404,2.144c-1.192,0-2.392,0-3.585,0l-0.504,32.005h3.152h20.003h0.264h1.968h0.264
	h0.44h0.264h0.136h0.264h0.144h0.272l0,0h0.272h0.144h0.272l0,0h0.408l0,0c3.897-0.36,7.761-0.816,11.602-1.352l-4.433-31.692
	L287.44,477.723z M354.05,457.344c-10.49,5.113-21.363,9.393-32.517,12.802l9.337,30.612c8.193-2.496,16.258-5.409,24.155-8.721l0,0
	l0.424-0.176l0,0l0.28-0.12l0,0l0.136-0.056l0,0l0.136-0.056l0,0l0.128-0.056l0,0l0.128-0.056l0,0l0.128-0.056l0,0l0.128-0.056l0,0
	l0.104-0.048l0,0l0.12-0.048l0,0l0.104-0.048l0,0l0.112-0.048h0.04l0.112-0.048h0.04h0.08h0.048l0.104-0.048h0.056h0.072h0.08h0.072
	h0.064h0.072h0.088h0.048l0.104-0.048h0.056h0.072h0.04l0.12-0.048h0.048h0.072l0,0l0.144-0.064l0,0l0.256-0.112l0,0l0.168-0.072
	l0,0c2.96-1.304,5.897-2.664,8.801-4.081L354.05,457.344z M411.242,417.419c-8.425,8.089-17.466,15.514-27.044,22.203l18.323,26.244
	c7.473-5.217,14.666-10.826,21.539-16.81l0,0l0.12-0.104l0,0l0.232-0.2l0,0l0.224-0.2l0,0l0.112-0.096l0,0l0.224-0.2l0,0
	l0.104-0.096l0,0l0.104-0.088l0,0l0.104-0.096l0,0l0.104-0.096l0,0l0.2-0.136l0,0l0.104-0.088l0,0l0.104-0.088l0,0l0.104-0.088l0,0
	l0.096-0.088l0,0l0.088-0.08l0,0l0.096-0.088l0,0l0.096-0.088l0,0l0.088-0.08l0,0l0.096-0.088l0,0l0.096-0.088l0,0l0.088-0.08l0,0
	l0.096-0.08l0,0l0.088-0.08l0,0l0.096-0.088l0,0l0.096-0.088l0,0l0.088-0.08l0,0l0.096-0.088l0,0l0.096-0.088l0,0l0.088-0.08l0,0
	l0.096-0.088l0,0l0.088-0.08l0,0l0.104-0.096l0,0l0.112-0.096l0,0l0.096-0.088l0,0l0.104-0.088l0,0l0.104-0.096l0,0l0.096-0.088l0,0
	l0.096-0.088l0,0l0.096-0.088l0,0l0.104-0.088l0,0l0.096-0.088l0,0l0.088-0.08l0,0l0.096-0.088l0,0l0.096-0.088l0,0l0.088-0.08l0,0
	l0.096-0.088l0,0l0.088-0.088l0,0l0.096-0.088l0,0l0.096-0.088l0,0l0.088-0.08l0,0l0.104-0.096l0,0l0.104-0.096l0,0l0.104-0.096l0,0
	l0.096-0.096l0,0l0.208-0.192l0,0l0.104-0.096l0,0l0.104-0.096l0,0l0.104-0.096l0,0l0.104-0.096l0,0l0.096-0.096l0,0l0.104-0.096
	l0,0l0.208-0.2l0,0l0.104-0.104l0,0l0.56-0.528l0,0l0.904-0.864l-21.163-23.995L411.242,417.419z M453.464,361.891
	c-5.537,10.273-11.874,20.107-18.939,29.396l25.476,19.379c1.336-1.752,2.648-3.529,3.937-5.313l0,0l0.272-0.384l0,0l0.16-0.224l0,0
	l0.096-0.136l0,0l0.152-0.216l0,0l0.072-0.104v-0.04l0.04-0.064v-0.048l0.064-0.088v-0.048l0.04-0.056l0.056-0.08l0.04-0.056v-0.048
	l0.064-0.088v-0.056v-0.056l0.056-0.08l0.048-0.064v-0.056l0.048-0.072l0.048-0.064v-0.056l0.048-0.064l0.048-0.064l0.376-0.104
	v-0.04l0.064-0.096v-0.048l0.048-0.064l0.04-0.064l0.056-0.08v-0.04l0.064-0.096l0,0l0.056-0.08l0,0l0.072-0.104l0,0l0.072-0.104
	l0,0l0.072-0.104l0,0l0.08-0.112l0,0l0.08-0.112l0,0l0.08-0.12l0,0l0.08-0.12l0,0l0.08-0.112l0,0l0.08-0.12l0,0l0.168-0.24l0,0
	l0.08-0.12l0,0l0.08-0.12l0,0l0.088-0.128l0,0l0.256-0.376l0,0c5.177-7.489,9.953-15.25,14.306-23.243l-28.18-15.202
	L453.464,361.891z M476.475,296.154c-2.08,11.474-5.065,22.763-8.913,33.773l30.212,10.602c1.384-3.945,2.664-7.929,3.857-11.962
	l0,0l0.08-0.28l0,0v-0.136l0,0v-0.112l0,0v-0.128l0,0v-0.104l0,0v-0.12v-0.048v-0.112v-0.04v-0.088v-0.056v-0.112v-0.056v-0.072
	v-0.064v-0.096v-0.064v-0.064v-0.104v-0.064v-0.064v-0.056v-0.12v-0.048v-0.072v-0.096v-0.072v-0.048l0.04-0.152l0,0v-0.088l0,0
	l0.04-0.152l0,0l0.072-0.264l0,0l0.08-0.272l0,0c2.104-7.545,3.873-15.218,5.289-23.019l-31.492-5.705L476.475,296.154z
	 M509.856,222.183l-31.732,4.193c1.288,9.817,1.936,19.707,1.936,29.604c0,1.792-0.024,3.585-0.064,5.369L512,262.101
	c0-0.568,0-1.144,0-1.712l0,0v-0.184l0,0v-4.201l0,0v-8.369v-0.392l0,0v-0.096l0,0v-0.312l0,0v-0.096l0,0v-0.408l0,0v-0.408l0,0
	c-0.232-5.977-0.672-11.906-1.304-17.77l0,0l-0.04-0.392v-0.104l0,0v-0.288v-0.128v-0.272v-0.256v-0.12v-0.344v-0.104v-0.288v-0.104
	v-0.44v-0.12v-0.152v-0.104l0,0v-0.248l0,0v-0.112l0,0v-0.256l0,0v-0.12l0,0c-0.08-0.648-0.16-1.296-0.248-1.944L509.856,222.183z
	 M487.189,145.821l-28.876,13.802c5.033,10.521,9.225,21.419,12.546,32.597l30.684-9.105c-2.64-8.889-5.761-17.626-9.353-26.172l0,0
	l-0.112-0.264l0,0l-0.088-0.176l0,0v-0.08l0,0l-0.056-0.136l0,0l-0.104-0.248l0,0l-0.064-0.144l0,0v-0.072l0,0l-0.056-0.128l0,0
	l-0.104-0.24l0,0l-0.056-0.128l0,0v-0.072v-0.04l-0.28-0.392l0,0v-0.072l0,0l-0.056-0.128v-0.048v-0.088v-0.072v-0.064v-0.072
	v-0.072v-0.072v-0.064l-0.04-0.096v-0.056v-0.064v-0.072v-0.088v-0.048v-0.088v-0.056v-0.088v-0.048l-0.048-0.104v-0.048v-0.08
	v-0.04l-0.656-0.192v-0.048l-0.04-0.096v-0.048v-0.088v-0.048l-0.048-0.112l0,0l-0.04-0.096l0,0l-0.048-0.12l0,0l-0.048-0.112l0,0
	l-0.048-0.112l0,0l-0.056-0.12l0,0l-0.048-0.12l0,0l-0.056-0.128l0,0l-0.12-0.264l0,0l-0.064-0.136l0,0l-0.064-0.136l0,0
	l-0.064-0.136l0,0l-0.128-0.272l0,0l-0.064-0.144l0,0l-0.128-0.28l0,0l-0.128-0.28l0,0c-0.6-1.32-1.216-2.632-1.84-3.937
	L487.189,145.821z M442.038,80.163l-23.203,22.003c8.033,8.481,15.386,17.578,22.011,27.204l26.404-18.139l0,0l0,0l-0.088-0.128
	v-0.04l-0.072-0.112l0,0l-0.048-0.064l0,0l-0.08-0.12l0,0l-0.048-0.064l-0.056-0.08l-0.04-0.056v-0.048l-0.072-0.104l0,0
	l-0.048-0.064l0,0l-0.08-0.12l0,0l-0.088-0.128l0,0l-0.048-0.072l0,0l-0.088-0.12l0,0l-0.152-0.216l0,0l-0.096-0.136l0,0
	l-0.056-0.08l0,0l-0.104-0.144l0,0l-0.096-0.136l0,0l-0.056-0.072l0,0l-0.096-0.136l0,0l-0.152-0.216l0,0l-0.088-0.128l0,0
	l-0.152-0.216l0,0l-0.08-0.12l0,0l-0.048-0.072l0,0l-0.096-0.136l0,0l-0.16-0.224l0,0l-0.272-0.384l0,0l-0.272-0.376l0,0
	l-0.16-0.224l0,0l-0.104-0.144l0,0l-0.168-0.232l0,0l-0.28-0.384l0,0l-1.024-1.392l0,0c-6.201-8.401-12.914-16.418-20.091-24.003
	L442.038,80.163z M378.941,31.484l-15.378,28.068c10.249,5.609,20.043,12.018,29.292,19.147l19.555-25.34
	c-8.617-6.649-17.643-12.738-27.036-18.243l0,0l-0.128-0.08l0,0l-0.296-0.152l0,0l-0.128-0.072l0,0l-0.128-0.072l0,0l-0.12-0.072
	l0,0l-0.104-0.064l0,0l-0.096-0.056l0,0l-0.104-0.064l0,0l-0.216-0.144l0,0l-0.096-0.056h-0.048l-0.08-0.048l-0.072-0.04h-0.056
	h-0.064l-0.088-0.048h-0.064l0,0l-0.232-0.256l0,0l-0.24-0.136l0,0c-1.336-0.76-2.672-1.512-4.001-2.256L378.941,31.484z
	 M303.931,4.601l-5.945,31.444c11.458,2.168,22.731,5.233,33.709,9.169l10.801-30.124c-4.033-1.448-8.113-2.776-12.234-4.001l0,0
	l-0.296-0.088l0,0l-0.32-0.12l0,0l-0.136-0.04l0,0h-0.136l0,0l-0.136-0.04l0,0l-0.272-0.08l0,0h-0.128l0,0h-0.112l0,0h-0.12l0,0
	h-0.104h-0.04h-0.112h-0.048h-0.112h-0.04h-0.096h-0.048h-0.12h-0.04h-0.096l0,0h-0.12h-0.048h-0.104l0,0h-0.104h-0.056h-0.096
	h-0.064h-0.08h-0.056h-0.112h-0.056h-0.072h-0.08h-0.08h-0.064h-0.08h-0.08h-0.072h-0.064h-0.08h-0.088h-0.048h-0.112h-0.056h-0.072
	h-0.056h-0.112h-0.056h-0.072h-0.048h-0.12h-0.04l-0.456-1.256l0,0l-0.152-0.04l0,0h-0.088l0,0l-0.168-0.048l0,0l-0.392-0.096l0,0
	l-0.272-0.072l0,0l-0.456-0.128l0,0l-0.272-0.072l0,0l-0.28-0.072l0,0l-0.752-0.2l0,0l-0.84-0.256l0,0l-0.8-0.2l0,0l-0.28-0.072l0,0
	l-0.48-0.12l0,0l-0.288-0.072l0,0l-2.088-0.528l0,0l-0.288-0.072l0,0l-0.184-0.048l0,0l-0.296-0.064l0,0l-0.288-0.072l0,0
	l-0.184-0.048l0,0l-0.288-0.064l0,0l-0.288-0.072l0,0h-0.152l0,0h-0.088l0,0h-0.16l0,0h-0.088l0,0h-0.16h-0.048h-0.152l0,0h-0.08
	h-0.04h-0.128h-0.048h-0.072h-0.056h-0.12h-0.056l-0.384-0.424h-0.048h-0.104h-0.072h-0.072h-0.064h-0.096h-0.072h-0.064h-0.104
	h-0.064h-0.072H312.7h-0.104h-0.064h-0.072h-0.064h-0.104h-0.048h-0.12l0,0h-0.096h-0.048h-0.12h-0.04h-0.096l0,0h-0.12h-0.04
	h-0.104h-0.04l-0.176-0.544l0,0h-0.128l0,0h-0.12l0,0h-0.136l0,0h-0.144l0,0l-0.272-0.16l0,0l-0.32-0.072l0,0h-0.144l0,0
	l-0.336-0.096l0,0l-0.304-0.064l0,0C307.539,5.313,305.739,4.953,303.931,4.601L303.931,4.601z M256.036,0.128v32.005
	c2.392,0,4.793,0.04,7.201,0.112l1-32.005c-2.104-0.056-4.193-0.088-6.281-0.104L256.036,0.128L256.036,0.128z"/>
<g>
	
		<rect x="113.143" y="244.027" transform="matrix(0.7071 -0.7071 0.7071 0.7071 -106.0591 256.0068)" style="fill:#E04F5F;" width="285.709" height="24.003"/>
	
		<rect x="244.025" y="113.17" transform="matrix(0.7071 -0.7071 0.7071 0.7071 -106.0485 256.0258)" style="fill:#E04F5F;" width="24.003" height="285.709"/>
</g>
<g>
</g>
<g>
</g>
<g>
</g>
<g>
</g>
<g>
</g>
<g>
</g>
<g>
</g>
<g>
</g>
<g>
</g>
<g>
</g>
<g>
</g>
<g>
</g>
<g>
</g>
<g>
</g>
<g>
</g>
</svg>
