<svg height="512" viewBox="0 0 60 61" width="512" xmlns="http://www.w3.org/2000/svg"><g id="053---Male-User" fill="none"><g id="Icons" transform="translate(1 1)"><path id="Shape" d="m58 29c-.0004652 7.9495901-3.2642918 15.550451-9.0282593 21.0251804-5.7639675 5.4747293-13.5226503 8.3432641-21.4617407 7.9348196h-.02c-15.4032699-.8098574-27.4773707-13.5354549-27.4773707-28.96s12.0741008-28.15014261 27.4773707-28.96h.02c7.9390904-.40844447 15.6977732 2.46009026 21.4617407 7.93481964 5.7639675 5.47472936 9.0277941 13.07559026 9.0282593 21.02518036z" fill="#cad9fc"/><g fill="#e8edfc"><path id="Shape" d="m55 29c-.0003518 15.4291761-12.0817537 28.1566188-27.49 28.96h-.02c-15.4032699-.8098574-27.4773707-13.5354549-27.4773707-28.96s12.0741008-28.15014261 27.4773707-28.96h.02c15.4082463.80338124 27.4896482 13.5308239 27.49 28.96z"/><path id="Shape" d="m44.01 29v3c0 1.6568542-1.3431458 3-3 3h-1.02c.01.12.01.26.01.39.1562707 3.221755-1.205731 6.3306719-3.68 8.4-.8521994.7500321-1.3343366 1.8348408-1.32 2.97v2c-.0025219 1.6622265 1.0252237 3.1520594 2.58 3.74l5.25 2c-8.628797 4.669429-19.031203 4.669429-27.66 0l5.25-2c1.5547763-.5879406 2.5825219-2.0777735 2.58-3.74v-2c.0143366-1.1351592-.4678006-2.2199679-1.32-2.97-2.474269-2.0693281-3.8362707-5.178245-3.68-8.4 0-.13 0-.27.01-.39h-1.02c-1.6568542 0-3-1.3431458-3-3v-3c0-1.6568542 1.3431458-3 3-3-1.8438509-2.6488243-2.8822392-5.774408-2.99-9 0-5.093-.016-5.808 2-9 0 0 2 4 6 3s5-2 11-2c5 0 8 2 8 6 2.9310679 3.0793631 2.9354642 7.9153128.01 11 1.6568542 0 3 1.3431458 3 3z"/></g></g><path id="Shape" d="m16.184 55.5-.014.005c3.800725 2.0490803 8.0081938 3.2307233 12.32 3.46h.02c1.0686491.0638118 2.1400826.066149 3.209.007-.07 0-.139 0-.209-.007h-.02c-4.3121923-.2308212-8.5196829-1.414178-12.32-3.465l.014-.005c-11.41854906-6.1902411-17.32854694-19.2178977-14.46552896-31.8869733 2.86301797-12.6690755 13.80072236-21.88940825 26.77152896-22.5680267h.02c.068 0 .135 0 .2-.007-1.0659173-.05907295-2.1343514-.05673575-3.2.007h-.02c-12.9743375.67502239-23.91656774 9.8966355-26.7800715 22.5690242s3.05054405 25.702914 14.4740715 31.8909758z" fill="#fff"/><g id="Layer_10" transform="translate(-1)"><path id="Shape" d="m2.154 21.832 1.925.544c-.4544146 1.5448062-.76572683 3.1281469-.93 4.73-.064 1.214-.031.574-.149 2.894h-2c-.01238156-1.380125.09300055-2.7587906.315-4.121.15711055-1.3715315.43792061-2.7260467.839-4.047z" fill="#fff"/><g fill="#428dff"><path id="Shape" d="m2.325 27.011c-.55228475 0-1-.4477153-1-1s.44771525-1 1-1 1 .4477153 1 1c0 .2652165-.10535684.5195704-.29289322.7071068s-.44189029.2928932-.70710678.2928932z"/><path id="Shape" d="m31 0c-13.4184312-.0005758-25.20205714 8.91782264-28.846 21.832-.15022144.5315741.15892594 1.0842785.6905 1.2345.53157407.1502214 1.08427854-.1589259 1.2345-.6905 3.44470665-12.1824488 14.6380835-20.53574853 27.2971095-20.37105876 12.6590261.16468976 23.6313039 8.80635736 26.7579191 21.07429686 3.1266151 12.2679396-2.3710337 25.1071435-13.4070286 31.3107619l-4.793-1.826c-1.1694724-.4358706-1.9420359-1.5559678-1.934-2.804v-2c-.0117361-.8381937.3398027-1.6404608.964-2.2 2.5488572-2.1120313 4.0242737-5.2498114 4.025-8.56 1.0644998.0055887 2.0873187-.4133702 2.8420123-1.1641223.7546935-.7507521 1.1790024-1.7713632 1.1789877-2.8358777v-3c.0008635-1.5515266-.8955682-2.9636014-2.3-3.623 2.2154125-3.3383691 1.9221352-7.7465393-.716-10.762-.188-4.215-3.442-6.615-8.994-6.615-6.17 0-7.259 1.031-11.243 2.03-3.15.788-4.8-2.346-4.862-2.477-.1613723-.32321807-.4845294-.53426934-.8453524-.55209288-.360823-.01782353-.7032067.16035209-.8956476.46609288-2.135 3.295-2.154 4.263-2.154 9.533.0695778 2.9376759.8895768 5.8087051 2.382 8.34-1.4513435.6391675-2.389178 2.0741485-2.392 3.66v3c-.0000147 1.0645145.4242942 2.0851256 1.1789877 2.8358777.7546936.7507521 1.7775125 1.169711 2.8420123 1.1641223.0022081 3.3072142 1.4762608 6.4418669 4.022 8.553.6271679.5606008.9800123 1.3659034.967 2.207v2c.0078541 1.2488167-.7655829 2.3694214-1.936 2.805l-4.791 1.825c-8.81028473-4.95878-14.26509669-14.2800765-14.273-24.39 0-.5522847-.44771525-1-1-1s-1 .4477153-1 1c0 22.3 23.926 37.349 44.189 26.425.0860106-.0331615.1670923-.0779078.241-.133 12.0108195-6.5877817 18.0320702-20.4761033 14.6304628-33.7459081-3.4016074-13.26980482-15.3616072-22.54877798-29.0604628-22.5460919zm-11.3 55.608 3.077-1.172c1.9372964-.7430042 3.2180259-2.601115 3.223-4.676v-2c.0178372-1.4309013-.5952079-2.7970847-1.676-3.735-2.2541014-1.8753528-3.4870341-4.7073147-3.324-7.635 0-.1 0-.214.006-.309.0226708-.2789479-.0725901-.5546313-.2626396-.7600748-.1900496-.2054436-.4574943-.3218449-.7373604-.3209252h-1.016c-1.1045695 0-2-.8954305-2-2v-3c.0054706-1.1022956.8977044-1.9945294 2-2 .3787721 0 .7250352-.2140024.8944272-.5527864s.132836-.744196-.0944272-1.0472136c-1.7262683-2.5047189-2.6948501-5.4535123-2.79-8.494 0-4.034 0-5.236 1.04-7.08 1.4686291 1.8669409 3.8918104 2.7048926 6.2 2.144 4.097-1.022 4.902-1.97 10.76-1.97 3.193 0 7 .867 7 5 .0013707.262482.1058893.5139013.291.7.176.18 4.277 4.453-.05 9.656-.250931.2980816-.3058741.714771-.1407839 1.0677076s.5201474.5778436.9097839.5762924c1.1045695 0 2 .8954305 2 2v3c0 1.1045695-.8954305 2-2 2h-1.02c-.2798661-.0009197-.5473108.1154816-.7373604.3209252-.1900495.2054435-.2853104.4811269-.2626396.7600748.007.095.006.206.006.309.1629508 2.9288869-1.0711967 5.7618246-3.327 7.637-1.0776538.938773-1.6880018 2.3039194-1.669 3.733v2c.005546 2.0747703 1.2866504 3.9324511 3.224 4.675l3.08 1.173c-7.1970724 3.1897714-15.4069276 3.1897714-22.604 0z"/></g></g></g></svg>